<?xml version="1.0" encoding="iso-8859-1"?>
<!-- Uploaded to: SVG Repo, www.svgrepo.com, Generator: SVG Repo Mixer Tools -->
<!DOCTYPE svg PUBLIC "-//W3C//DTD SVG 1.1//EN" "http://www.w3.org/Graphics/SVG/1.1/DTD/svg11.dtd">
<svg fill="#000000" height="800px" width="800px" version="1.1" id="Capa_1" xmlns="http://www.w3.org/2000/svg" xmlns:xlink="http://www.w3.org/1999/xlink" 
	 viewBox="0 0 441.834 441.834" xml:space="preserve">
<path d="M176.261,201.744c-28.322,5.235-47.893,22.69-52.35,46.755l-21.378,115.337h60.897c5.523,0,10,4.477,10,10
	c0,5.522-4.477,10-10,10H90.51c-2.971,0-5.788-1.247-7.688-3.531s-2.686-5.22-2.145-8.141l23.568-127.233
	c6.026-32.532,31.588-56.016,68.379-62.816c18.553-3.429,38.305-2.001,55.619,4.024c19.095,6.645,34.168,18.305,43.593,33.719
	c2.881,4.712,1.396,10.867-3.316,13.748c-4.71,2.881-10.866,1.396-13.748-3.316C240.858,207.531,208.572,195.768,176.261,201.744z
	 M143.366,138.342c-11.371-11.804-24.635-33.626-23.254-70.552c0.022-0.59,0.671-7.925,1.079-10.301
	c6.506-37.911,40.285-56.395,71.261-57.483c0.234-0.008,0.468-0.008,0.702,0c11.296,0.397,22.966,3.109,33.552,8.23
	c2.307,1.116,8.08,4.444,8.664,4.919c16.739,11.019,29.168,29.06,30.125,54.635c1.382,36.926-11.883,58.748-23.253,70.552
	c-13.184,13.686-30.741,21.223-49.438,21.223C174.107,159.564,156.549,152.027,143.366,138.342z M245.508,68.538
	c-0.456-12.187-4.492-21.956-10.708-29.452c-7.708,22.28-22.98,38.795-43.455,46.41c-7.635,2.84-15.61,4.227-23.545,4.227
	c-9.326,0-18.593-1.93-27.201-5.654c1.76,16.64,7.572,30.434,17.171,40.398c9.378,9.736,21.82,15.098,35.034,15.098
	c13.213,0,25.655-5.361,35.033-15.098C240.284,111.546,246.394,92.206,245.508,68.538z M140.812,61.487
	c12.812,8.585,29.055,10.659,43.561,5.264c16.526-6.147,28.464-20.794,33.441-40.693c-7.755-3.715-16.418-5.705-25.01-6.051
	C169.313,20.953,145.288,34.148,140.812,61.487z M333.467,406.966c-3.335,2.344-7.152,4.999-11.445,8.09l-34.572,24.894
	c-1.745,1.257-3.787,1.885-5.836,1.885s-4.084-0.628-5.829-1.885l-34.548-24.894c-4.286-3.085-8.006-5.738-11.337-8.078
	c-26.955-18.937-28.394-21.92-27.564-53.189c0.152-5.731,0.567-12.864,0.567-21.521v-49.783c0-3.217,1.342-6.236,3.952-8.116
	c20.544-14.79,62.387-15.938,74.784-15.938s54.483,1.148,75.029,15.938c2.611,1.879,4.235,4.899,4.235,8.116v49.783
	c0,8.655,0.112,15.787,0.265,21.518C361.998,385.056,360.41,388.037,333.467,406.966z M341.103,354.316
	c-0.134-5.039-0.29-11.146-0.333-18.44l-31.006-10.824c-5.215-1.819-7.948-7.521-6.127-12.736c1.819-5.214,7.558-7.968,12.775-6.146
	l24.492,8.521v-26.56c-12-5.97-34.094-9.7-59-9.7c-24.907,0-48,3.73-59,9.7v26.106l22.891-8.067
	c5.214-1.822,10.691,0.933,12.511,6.146c1.82,5.215-0.932,10.917-6.146,12.736l-29.714,10.369
	c-0.038,7.501-0.204,13.753-0.34,18.898c-0.312,11.75-0.484,18.223,1.238,21.511c1.803,3.443,7.536,7.472,17.942,14.782
	c3.376,2.371,7.201,5.059,11.581,8.212l28.734,20.688l28.732-20.687c4.387-3.158,8.217-5.85,11.597-8.224
	c10.399-7.307,16.129-11.332,17.931-14.773C341.581,372.54,341.414,366.067,341.103,354.316z M290.794,357.272
	c-1.865,1.983-4.974,4.347-9.193,4.347s-7.331-2.365-9.198-4.349c-3.785-4.021-10.115-4.214-14.136-0.429
	c-4.021,3.785-4.214,10.114-0.429,14.136c6.459,6.862,14.897,10.642,23.763,10.642c8.867,0,17.307-3.78,23.762-10.644
	c3.784-4.023,3.59-10.353-0.433-14.136C300.905,353.055,294.577,353.25,290.794,357.272z"/>
</svg>